<mxfile host="app.diagrams.net" agent="Mozilla/5.0 (Windows NT 10.0; Win64; x64) AppleWebKit/537.36 (KHTML, like Gecko) Chrome/135.0.0.0 Safari/537.36" version="26.2.14">
  <diagram name="Page-1" id="lgquDD4Uh8YJOnI31WaI">
    <mxGraphModel dx="1892" dy="1662" grid="1" gridSize="10" guides="1" tooltips="1" connect="1" arrows="1" fold="1" page="1" pageScale="1" pageWidth="850" pageHeight="1100" math="0" shadow="0">
      <root>
        <mxCell id="0" />
        <mxCell id="1" parent="0" />
        <mxCell id="-4IaUMSecr23aBqWmE5a-96" value="" style="group" parent="1" vertex="1" connectable="0">
          <mxGeometry x="-167" y="-940" width="180" as="geometry" />
        </mxCell>
        <mxCell id="-4IaUMSecr23aBqWmE5a-97" value="" style="group" parent="1" vertex="1" connectable="0">
          <mxGeometry x="-80" y="290" height="10" as="geometry" />
        </mxCell>
        <mxCell id="-4IaUMSecr23aBqWmE5a-62" value="" style="endArrow=none;html=1;rounded=0;startArrow=oval;startFill=1;exitX=1;exitY=0.3333333333333333;exitDx=0;exitDy=0;exitPerimeter=0;" parent="1" source="-4IaUMSecr23aBqWmE5a-27" edge="1">
          <mxGeometry width="50" height="50" relative="1" as="geometry">
            <mxPoint x="160" y="-1010" as="sourcePoint" />
            <mxPoint x="255" y="-810" as="targetPoint" />
          </mxGeometry>
        </mxCell>
        <mxCell id="JgytswSy-KVYaiF7QBk7-1" value="" style="swimlane;startSize=0;container=0;" parent="1" vertex="1">
          <mxGeometry x="110" y="-1000" width="620" height="360" as="geometry" />
        </mxCell>
        <mxCell id="-4IaUMSecr23aBqWmE5a-27" value="Student" style="shape=umlActor;verticalLabelPosition=bottom;verticalAlign=top;html=1;fontSize=14;" parent="JgytswSy-KVYaiF7QBk7-1" vertex="1">
          <mxGeometry x="30" y="170" width="30" height="60" as="geometry" />
        </mxCell>
        <mxCell id="JgytswSy-KVYaiF7QBk7-2" value="" style="swimlane;startSize=0;" parent="1" vertex="1">
          <mxGeometry x="225" y="-960" width="465" height="290" as="geometry" />
        </mxCell>
        <mxCell id="3l2-dYwivfWwcYT8FtwX-11" value="&lt;div&gt;Manage Study Material&lt;/div&gt;" style="ellipse;whiteSpace=wrap;html=1;" vertex="1" parent="JgytswSy-KVYaiF7QBk7-2">
          <mxGeometry x="29" y="121" width="143" height="62" as="geometry" />
        </mxCell>
        <mxCell id="3l2-dYwivfWwcYT8FtwX-12" value="" style="group" vertex="1" connectable="0" parent="JgytswSy-KVYaiF7QBk7-2">
          <mxGeometry x="287" y="6" width="149" height="278" as="geometry" />
        </mxCell>
        <mxCell id="3l2-dYwivfWwcYT8FtwX-13" value="&lt;div&gt;Upload Material&lt;/div&gt;" style="ellipse;whiteSpace=wrap;html=1;" vertex="1" parent="3l2-dYwivfWwcYT8FtwX-12">
          <mxGeometry x="6" y="44" width="143" height="62" as="geometry" />
        </mxCell>
        <mxCell id="3l2-dYwivfWwcYT8FtwX-14" value="&lt;div&gt;Share Material&lt;/div&gt;" style="ellipse;whiteSpace=wrap;html=1;" vertex="1" parent="3l2-dYwivfWwcYT8FtwX-12">
          <mxGeometry x="7" y="114" width="143" height="62" as="geometry" />
        </mxCell>
        <mxCell id="3l2-dYwivfWwcYT8FtwX-15" value="Download Material" style="ellipse;whiteSpace=wrap;html=1;" vertex="1" parent="3l2-dYwivfWwcYT8FtwX-12">
          <mxGeometry x="6" y="182" width="143" height="62" as="geometry" />
        </mxCell>
        <mxCell id="3l2-dYwivfWwcYT8FtwX-16" value="" style="group" vertex="1" connectable="0" parent="JgytswSy-KVYaiF7QBk7-2">
          <mxGeometry x="172" y="80" width="120" height="140" as="geometry" />
        </mxCell>
        <mxCell id="3l2-dYwivfWwcYT8FtwX-17" value="" style="strokeWidth=1;html=1;shape=mxgraph.flowchart.annotation_2;align=left;labelPosition=right;pointerEvents=1;" vertex="1" parent="3l2-dYwivfWwcYT8FtwX-16">
          <mxGeometry x="27.470000000000027" width="93.53" height="140" as="geometry" />
        </mxCell>
        <mxCell id="3l2-dYwivfWwcYT8FtwX-18" value="" style="endArrow=block;html=1;rounded=0;endFill=0;strokeWidth=1;" edge="1" parent="3l2-dYwivfWwcYT8FtwX-16">
          <mxGeometry width="50" height="50" relative="1" as="geometry">
            <mxPoint x="35.72881355932202" y="70" as="sourcePoint" />
            <mxPoint y="70.06426000000002" as="targetPoint" />
          </mxGeometry>
        </mxCell>
        <mxCell id="3l2-dYwivfWwcYT8FtwX-19" value="" style="line;strokeWidth=1;html=1;" vertex="1" parent="3l2-dYwivfWwcYT8FtwX-16">
          <mxGeometry x="74" y="65" width="48" height="10" as="geometry" />
        </mxCell>
      </root>
    </mxGraphModel>
  </diagram>
</mxfile>
